<?xml version="1.0" encoding="iso-8859-1"?>
<!-- Generator: Adobe Illustrator 16.0.0, SVG Export Plug-In . SVG Version: 6.00 Build 0)  -->
<!DOCTYPE svg PUBLIC "-//W3C//DTD SVG 1.1//EN" "http://www.w3.org/Graphics/SVG/1.1/DTD/svg11.dtd">
<svg version="1.1" id="Capa_1" xmlns="http://www.w3.org/2000/svg" xmlns:xlink="http://www.w3.org/1999/xlink" x="0px" y="0px"
	 width="325.58px" height="325.58px" viewBox="0 0 325.58 325.58" style="enable-background:new 0 0 325.58 325.58;"
	 xml:space="preserve">
<g>
	<g>
		<path style="fill:#191970;" d="M167.005,110.39c-34.554,0-62.662,28.109-62.662,62.663c0,22.204,11.438,42.299,30.591,53.759
			c2.947,1.759,6.038,3.166,9.192,4.384c0.01-0.179,0.086-0.332,0.107-0.509c0.061-0.374,0.097-0.756,0.221-1.114
			c0.124-0.34,0.322-0.603,0.501-0.901c0.17-0.295,0.339-0.573,0.559-0.836c0.252-0.288,0.564-0.488,0.882-0.719
			c0.207-0.141,0.349-0.341,0.58-0.463l14.202-7.411h-11.713c-0.005,0-0.005,0-0.01,0c-0.635,0-1.242-0.141-1.84-0.363
			c-0.146-0.058-0.29-0.114-0.423-0.177c-0.548-0.252-1.06-0.566-1.501-1.008c-0.037-0.031-0.063-0.086-0.103-0.117
			c-0.278-0.304-0.553-0.603-0.761-0.976c-0.066-0.104-0.066-0.221-0.113-0.33c-0.163-0.32-0.254-0.657-0.339-1.003
			c-0.107-0.357-0.199-0.709-0.221-1.06c0-0.116-0.076-0.221-0.076-0.343c0-0.221,0.108-0.408,0.124-0.631
			c0.047-0.371,0.103-0.723,0.221-1.075c0.112-0.33,0.273-0.618,0.43-0.912c0.175-0.301,0.339-0.578,0.564-0.841
			c0.242-0.283,0.527-0.504,0.816-0.734c0.179-0.131,0.292-0.325,0.483-0.432l16.597-9.752h-0.56
			c-12.494,0-22.659-10.164-22.659-22.657c0-12.494,10.166-22.66,22.659-22.66c12.494,0,22.656,10.166,22.656,22.66
			c0,0.698-0.136,1.396-0.403,2.052c-0.278,0.662-0.667,1.256-1.171,1.75l-8.105,8.104h7.339c0.231,0,0.421,0.104,0.64,0.125
			c0.363,0.042,0.725,0.101,1.066,0.221c0.341,0.109,0.629,0.272,0.94,0.441c0.293,0.161,0.561,0.335,0.812,0.556
			c0.289,0.252,0.52,0.525,0.751,0.818c0.132,0.18,0.314,0.296,0.431,0.483c0.052,0.105,0.052,0.221,0.109,0.326
			c0.153,0.325,0.252,0.66,0.343,1.008c0.104,0.352,0.182,0.704,0.208,1.06c0.013,0.111,0.075,0.205,0.075,0.338
			c0,0.226-0.111,0.408-0.127,0.629c-0.042,0.368-0.104,0.729-0.221,1.082c-0.115,0.335-0.263,0.613-0.43,0.912
			c-0.168,0.299-0.337,0.573-0.567,0.841c-0.242,0.283-0.525,0.515-0.813,0.735c-0.179,0.13-0.299,0.335-0.483,0.439l-16.604,9.743
			h13.881c0.241,0,0.462,0.116,0.693,0.138c0.397,0.062,0.787,0.104,1.158,0.236c0.332,0.114,0.584,0.299,0.883,0.478
			c0.304,0.177,0.593,0.335,0.854,0.576c0.28,0.252,0.49,0.562,0.709,0.873c0.143,0.203,0.353,0.346,0.473,0.592
			c0.031,0.062,0.031,0.131,0.069,0.2c0.141,0.33,0.204,0.667,0.294,1.013c0.094,0.346,0.2,0.704,0.221,1.05
			c0,0.085,0.052,0.127,0.052,0.21c0,0.263-0.116,0.483-0.158,0.735c-0.052,0.378-0.094,0.755-0.22,1.103
			c-0.126,0.341-0.315,0.608-0.494,0.912c-0.177,0.294-0.335,0.579-0.556,0.831c-0.263,0.293-0.571,0.493-0.883,0.714
			c-0.208,0.146-0.351,0.351-0.582,0.473l-14.199,7.411H183.1c2.977,0,5.376,2.395,5.376,5.376c0,0.104-0.053,0.177-0.053,0.283
			c3.68-1.318,7.274-2.866,10.666-4.893c19.15-11.455,30.604-31.544,30.604-53.759C229.673,138.493,201.567,110.39,167.005,110.39z"
			/>
		<path style="fill:#191970;" d="M162.774,164.927c-6.569,0-11.906,5.332-11.906,11.905c0,5.874,4.284,10.73,9.88,11.701l13.722-13.728
			C173.504,169.21,168.643,164.927,162.774,164.927z"/>
		<path d="M189.725,242.796c-0.263,0.084-0.524,0.158-0.798,0.242c-7.081,2.235-14.462,3.433-21.917,3.433
			c-7.461,0-14.847-1.197-21.932-3.433c-0.252-0.089-0.512-0.158-0.764-0.242c-2.199-0.725-4.37-1.521-6.504-2.456
			c-0.087-0.042-0.168-0.068-0.252-0.104v16.535h58.905v-16.525c-0.083,0.042-0.167,0.062-0.257,0.095
			C194.083,241.274,191.919,242.071,189.725,242.796z"/>
		<rect style="fill:#191970;" x="137.559" y="267.531" width="58.905" height="8.692"/>
		<path style="fill:#fff;" d="M309.454,0H16.127C7.237,0,0,7.236,0,16.126v293.328c0,8.892,7.236,16.126,16.127,16.126h293.326
			c8.892,0,16.126-7.234,16.126-16.126V16.126C325.58,7.236,318.345,0,309.454,0z M161.36,43.982c0-2.974,2.41-5.375,5.372-5.375
			c2.971,0,5.376,2.402,5.376,5.375v36.726c0,2.974-2.405,5.375-5.376,5.375c-2.962,0-5.372-2.402-5.372-5.375V43.982z
			 M82.878,76.374c2.103-2.105,5.501-2.105,7.602,0l19.443,19.434c2.103,2.107,2.103,5.499,0,7.601
			c-1.047,1.047-2.425,1.574-3.801,1.574c-1.375,0-2.758-0.527-3.801-1.574L82.878,83.975
			C80.784,81.868,80.784,78.466,82.878,76.374z M207.215,234.355v22.425h0.977c2.966,0,5.376,2.404,5.376,5.376
			c0,2.971-2.41,5.375-5.376,5.375h-0.977V281.6c0,2.971-2.404,5.375-5.375,5.375h-69.657c-2.968,0-5.375-2.404-5.375-5.375v-14.068
			h-0.974c-2.966,0-5.375-2.404-5.375-5.375c0-2.972,2.41-5.376,5.375-5.376h0.974v-22.425
			c-20.84-13.648-33.216-36.315-33.216-61.303c0-40.478,32.935-73.413,73.413-73.413c40.482,0,73.419,32.935,73.419,73.413
			C240.424,198.04,228.056,220.707,207.215,234.355z M242.702,80.256l-23.161,23.153c-1.039,1.047-2.424,1.574-3.8,1.574
			s-2.755-0.527-3.8-1.574c-2.105-2.102-2.105-5.494,0-7.601l23.16-23.153c2.111-2.102,5.5-2.102,7.601,0
			C244.802,74.763,244.802,78.164,242.702,80.256z"/>
	</g>
</g>
<g>
</g>
<g>
</g>
<g>
</g>
<g>
</g>
<g>
</g>
<g>
</g>
<g>
</g>
<g>
</g>
<g>
</g>
<g>
</g>
<g>
</g>
<g>
</g>
<g>
</g>
<g>
</g>
<g>
</g>
</svg>
